<?xml version="1.0" encoding="UTF-8"?><svg id="a" xmlns="http://www.w3.org/2000/svg" width="1024" height="1024" viewBox="0 0 1024 1024"><defs><style>.b{fill:none;}.c{fill:#ff7738;}</style></defs><path class="b" d="m0,0h1024v1024H0V0Z"/><path class="c" d="m869.55,365.65l-52.48,78.93c51.41,102.53,47.88,224.03-9.39,323.41H216.32c-94.14-163.32-38.07-372.04,125.26-466.18,99.29-57.23,220.68-60.82,323.17-9.55l78.93-52.48c-198.36-127.2-462.28-69.51-589.48,128.86-85.77,133.75-90.11,304.08-11.27,442.02,15.15,26.24,43.08,42.48,73.39,42.67h590.93c30.61.12,58.94-16.16,74.24-42.67,80.16-138.85,75.71-310.92-11.52-445.44l-.43.43Z"/><path class="c" d="m451.84,657.49c33.31,33.34,87.34,33.37,120.68.07.02-.02.04-.04.07-.07l241.49-362.24-362.24,241.49c-33.34,33.31-33.37,87.34-.07,120.68.02.02.04.04.07.07Z"/></svg>