<?xml version="1.0" encoding="UTF-8"?><svg id="a" xmlns="http://www.w3.org/2000/svg" width="1024" height="1024" viewBox="0 0 1024 1024"><defs><style>.b{fill:none;}.c{fill:#ff7738;}</style></defs><path class="b" d="m0-309.39h1024v1376.05H0V-309.39Z"/><path class="c" d="m725.33,664.74c-57.6,0-93.87,24.08-125.87,45.87-27.73,18.92-50.35,34.4-87.47,34.4s-59.73-14.33-87.47-34.4c-32-21.79-66.99-45.87-125.87-45.87s-93.87,24.08-125.87,45.87c-27.73,18.92-49.92,34.4-87.47,34.4v111.8c57.6,0,93.87-24.08,125.87-45.87,27.73-18.92,49.92-34.4,87.47-34.4s59.73,14.33,87.47,34.4c32,21.79,66.99,45.87,125.87,45.87s93.87-24.08,125.87-45.87c27.73-18.92,50.35-34.4,87.47-34.4s59.73,14.33,87.47,34.4c32,21.79,67.41,45.87,125.87,45.87v-111.8c-38.4,0-59.73-14.33-87.47-34.4-32-21.79-68.27-45.87-125.87-45.87Zm0-255.14c-57.6,0-93.87,24.65-125.87,45.87-27.73,18.35-50.35,34.4-87.47,34.4s-59.73-14.33-87.47-34.4c-32-21.79-66.99-45.87-125.87-45.87s-93.87,24.65-125.87,45.87c-27.73,18.35-49.92,34.4-87.47,34.4v111.8c57.6,0,93.87-24.65,125.87-45.87,27.73-20.07,49.07-34.4,87.47-34.4s59.73,14.33,87.47,34.4c32,21.79,66.99,45.87,125.87,45.87s93.87-24.65,125.87-45.87c27.73-20.07,49.07-34.4,87.47-34.4s59.73,14.33,87.47,34.4c32,21.79,67.41,45.87,125.87,45.87v-111.8c-38.4,0-59.73-14.33-87.47-34.4-32-21.79-68.27-45.87-125.87-45.87Zm0-255.14c-57.6,0-93.87,24.65-125.87,45.87-27.73,20.07-49.07,34.4-87.47,34.4s-59.73-14.33-87.47-34.4c-32-21.79-66.99-45.87-125.87-45.87s-93.87,24.65-125.87,45.87c-27.73,20.07-49.07,34.4-87.47,34.4v111.8c57.6,0,93.87-24.65,125.87-45.87,27.73-18.35,50.35-34.4,87.47-34.4s59.73,14.33,87.47,34.4c32,21.79,66.99,45.87,125.87,45.87s93.87-24.65,125.87-45.87c27.73-18.35,50.35-34.4,87.47-34.4s59.73,14.33,87.47,34.4c32,21.79,67.41,45.87,125.87,45.87v-111.8c-38.4,0-59.73-14.33-87.47-34.4-32-21.79-68.27-45.87-125.87-45.87Z"/></svg>